/* XPM */
static char *grid_151666774940[] = {
/* columns rows colors chars-per-pixel */
"15 15 2 1 ",
"  c black",
". c white",
/* pixels */
"...............",
".             .",
".             .",
".             .",
".             .",
".             .",
".             .",
".             .",
".             .",
".             .",
".             .",
".             .",
".             .",
".             .",
"..............."
};
