/* XPM */
static char *a097914551ec47f39c2e06fc7223525b[] = {
/* columns rows colors chars-per-pixel */
"52 52 252 2 ",
"   c #030301",
".  c #0A0203",
"X  c #010C02",
"o  c #070809",
"O  c #180B0B",
"+  c #011402",
"@  c #011B01",
"#  c #08160B",
"$  c #011C0C",
"%  c #0C1D0C",
"&  c #13180A",
"*  c #1A0918",
"=  c #021D11",
"-  c #0B1C13",
";  c #191617",
":  c #131B14",
">  c #1A1B14",
",  c #1A1C1C",
"<  c #23131A",
"1  c #022203",
"2  c #03240C",
"3  c #052B0C",
"4  c #0A2809",
"5  c #15260C",
"6  c #043706",
"7  c #15350C",
"8  c #0A2617",
"9  c #0B2B14",
"0  c #112212",
"q  c #1A2214",
"w  c #162B17",
"e  c #14241B",
"r  c #1B241B",
"t  c #0C3315",
"y  c #1A3917",
"u  c #282D1C",
"i  c #25361D",
"p  c #1D1C21",
"a  c #0C2E20",
"s  c #172922",
"d  c #173526",
"f  c #23262C",
"g  c #253829",
"h  c #2B3632",
"j  c #094308",
"k  c #114D0A",
"l  c #174916",
"z  c #1D4B1D",
"x  c #19561C",
"c  c #264819",
"v  c #28691A",
"b  c #2F721B",
"n  c #1B4825",
"m  c #1D5428",
"M  c #1D4A3A",
"N  c #254729",
"B  c #31462A",
"V  c #255827",
"C  c #264836",
"Z  c #334639",
"A  c #29553C",
"S  c #375B36",
"D  c #1F6F3A",
"F  c #2A6829",
"G  c #356B27",
"H  c #2A7424",
"J  c #357729",
"K  c #2C6936",
"L  c #3B6B34",
"P  c #376838",
"I  c #297838",
"U  c #377737",
"Y  c #3A7B35",
"T  c #414F2E",
"R  c #446A38",
"E  c #437A3A",
"W  c #2A5644",
"Q  c #2B5B44",
"!  c #39544E",
"~  c #385A48",
"^  c #2C6344",
"/  c #2C6A48",
"(  c #346549",
")  c #346C4C",
"_  c #3B6B4D",
"`  c #377548",
"'  c #2F6D52",
"]  c #386756",
"[  c #366D53",
"{  c #3C6C54",
"}  c #3B6C5B",
"|  c #357253",
" . c #3C7253",
".. c #3D735B",
"X. c #39775A",
"o. c #3C6C62",
"O. c #3B7664",
"+. c #445A49",
"@. c #47595A",
"#. c #456648",
"$. c #477845",
"%. c #446453",
"&. c #436B55",
"*. c #4B6C55",
"=. c #476559",
"-. c #4C645A",
";. c #436C5B",
":. c #4C6C5B",
">. c #50665A",
",. c #526B5C",
"<. c #437355",
"1. c #44735C",
"2. c #4A735E",
"3. c #47785D",
"4. c #53725E",
"5. c #537B5A",
"6. c #585769",
"7. c #476A64",
"8. c #4C6C65",
"9. c #536B66",
"0. c #447363",
"q. c #4B7463",
"w. c #4D7B64",
"e. c #497868",
"r. c #567868",
"t. c #527B73",
"y. c #676D7B",
"u. c #2A861E",
"i. c #298928",
"p. c #378729",
"a. c #34842C",
"s. c #348C2C",
"d. c #2A9729",
"f. c #33942C",
"g. c #2D8934",
"h. c #3C8435",
"j. c #348C34",
"k. c #3A8D34",
"l. c #388539",
"z. c #358C3A",
"x. c #3C8C3C",
"c. c #2D9632",
"v. c #339333",
"b. c #33933A",
"n. c #399438",
"m. c #39A63A",
"M. c #42892F",
"N. c #438835",
"B. c #43833C",
"V. c #438C3C",
"C. c #44943A",
"Z. c #3A8646",
"A. c #3D8B43",
"S. c #3C9747",
"D. c #33904B",
"F. c #488847",
"G. c #528949",
"H. c #479447",
"J. c #52924A",
"K. c #4A8756",
"L. c #4C8B54",
"P. c #558C58",
"I. c #499253",
"U. c #579659",
"Y. c #5DA24F",
"T. c #4C8665",
"R. c #558769",
"E. c #4D9367",
"W. c #569867",
"Q. c #5A936D",
"!. c #598976",
"~. c #5B9472",
"^. c #5C9C73",
"/. c #5D9C7B",
"(. c #658979",
"). c #619B73",
"_. c #649678",
"`. c #649A7A",
"'. c #5DA36B",
"]. c #59A468",
"[. c #54A96B",
"{. c #5DA272",
"}. c #5CA777",
"|. c #61A56D",
" X c #63A86C",
".X c #62A673",
"XX c #65AB73",
"oX c #69AD76",
"OX c #64A47B",
"+X c #69A67B",
"@X c #65AA7B",
"#X c #6BAD7B",
"$X c #71AF7D",
"%X c #69B176",
"&X c #64B27B",
"*X c #6DB37B",
"=X c #72B47D",
"-X c #72B97E",
";X c #689888",
":X c #759B8D",
">X c #5EB182",
",X c #6BA484",
"<X c #6CAB82",
"1X c #68A985",
"2X c #71AC85",
"3X c #74A78C",
"4X c #74AB8B",
"5X c #64B382",
"6X c #6CB686",
"7X c #72B483",
"8X c #74BA84",
"9X c #74B48B",
"0X c #78BA88",
"qX c #7ABD8B",
"wX c #7AA894",
"eX c #7AB594",
"rX c #7AC186",
"tX c #7DC18C",
"yX c #7DC394",
"uX c #82AE95",
"iX c #81B299",
"pX c #83C68E",
"aX c #83C593",
"sX c #84C994",
"dX c #87CA98",
"fX c #8ACC9C",
"gX c #8CD29D",
"hX c #90D29E",
"jX c #96CFAC",
"kX c #8ED1A2",
"lX c #95D9A7",
"zX c #9ADDA5",
"xX c #9BDEA9",
"cX c #A5DFAF",
"vX c #9DE1A7",
"bX c #9DE2AC",
"nX c #9FE3B2",
"mX c #A2E4AD",
"MX c #A8EAAD",
"NX c #A3E5B2",
"BX c #A5EAB4",
"VX c #A9ECB5",
"CX c #A6E8B8",
"ZX c #AAEDBA",
"AX c #ADF1BB",
"SX c #B1F3BC",
"DX c #ACECC1",
"FX c #B1ECC3",
"GX c #ADF1C1",
"HX c #AFF8C0",
"JX c #B2F5C3",
"KX c #B8F7C7",
/* pixels */
"L J v v v G G G G b Y J J L G G G G J J H b b J J b b b b H H H H H v v G G F F U Y u.J J Y Y Y a.a.J E ",
"F J p.p.p.M.N.N.M.M.i.i.a.k.C.C.N.k.s.s.s.i.s.s.p.p.j.j.j.g.g.g.j.j.H.x.x.x.z.z.b.g.d.d.v.z.z.v.f.f.s.Y ",
"P F.V.V.N.B.B.B.h.p.b.S.S.x.F.F.F.F.J.I.H.H.H.J.J.J.I.I.I.K.I.K.L.L.L.K.F.Z.Z.S.S.D.d.v.b.x.z.z.z.k.V.L ",
"S E h.Y Y Y F.F.x.k.g.Z.F 6 6 7 4 5 9 9 9 3 3 3 2 2 t 9 9 9 9 8 8 8 9 9 3 6 l I I.S.v.n.A.A.A.x.x.x.G.$.",
"P F.x.x.x.A.A.x.z.v.Z.I.K 3 @ 5 > > ; ; , p p f f f > , , , , p ; ; : q 5 @ 6 U H.j.v.n.x.A.A.x.v.k.h.E ",
"P l.i.i.v.z.z.c.c.d.F.'.$.4 + & O O * * < < * * * * O O O ; ; * * O . O & + 6 E Y.C.f.s.k.k.k.v.f.f.s.B.",
"L h.s.k.C.B.Y F.F.H g g C ~ W M R.3.1.^ M A Q W W Q W W W Q W A ( 1.2.w.C ~ ~ Z Z h Z.H.Z.A.b.c.m.i.x.L ",
"F Y s.a.a.Y $.G.F.x + $ d %.q.<.iXiXfX_. .1.w.w.w.t.w.w.w.w.1.3.`.jXiXuX;.q.%.d - X U F.F.A.i.i.c.i.H.L ",
"G h.s.k.h.G.G.P.U.L + $ d &.2._ 3X4X,XT.( ^ ( Q Q ( Q Q Q ^ ^ ) R.3XwX;X( q.%.w $ + U K.L.I.H.n.m.v.H.L ",
"L h.k.k.h.F.P V P V d d C &.<.( 3X4X^.~.Q.Q.).)._._._._._.~.~.~.~.~.eX;X( 2.&.d d d L P P ` F.z.i.i.H.L ",
"F h.a.J Y $.N @ 3 y !.r.2.w.<.) 2X<XaXnXFXFXFXKXKXFXFXKXKXFXDXDXlXeX1X`.^ 2.r.:.r.(.7 @ 1 z $.A.z.H.l.L ",
"G V.V.h.U.P.N X @ N e.2.] { ( ^ 4X2XE.fXKXKXNXNXCXcXNXNXNXNXJXGXyXT.<X@X^ [ } ] q.r.y @ @ N Q.U.l.x.Y L ",
"P F.J.J G.*.g 8 8 Z q.;.{ w. ./ <X#X.XfXVXZXmXmXVXZXAXBXbXNXZXBXsX.X@XOX/  .e.{ 0.e.y 4 w C 5.L.Y J.l.P ",
"P B.Y 6 6 t W r.7.9.1.} T.4XeX+XCXZXBXsX.XW.]..X XW.].|.XX'.W.'.sXBXZXnX@X4X,XT.0.1.5.r.4.C t 1 j F.F.P ",
"#.U. X6 + + @.9.9.=.1.( 3.,X,XOXxXZXJX7XW. X=X%X X=X%X].%X X'.].tXAXKXkX@X@X,X .[ X._ <.r.W 2 + 6 U.P.S ",
"S $.L 6 3 $ ! @.@.! ) ^ X.<X<X7XkXNXAXpXoX XoX%X].W.'.].*X XXX%XgXHXBXfX7X<X<X| / ) ) ) ;.C 2 2 z $.$.S ",
"w y z S *.~ (.:XwX3XOX^.<XxXkXlXqXtX7XoXXX|.rXbXbXzXvXzXvX8XXX'.XX*X0XtXgXlXlXOXOX<X@X,X3Xt.~ ~ K m l 4 ",
"X + 4 #.4.~ :XiXwX,X9X<X9XDXZXJXoXW.XXXXoX'.tXBXAXNXNXVXBX8XXXoX%X.XW.0XBXAXZX<X7XqX&X6XiX;X8.r.( 1 @ X ",
"o 0 9 *.4.%.:XiX1X1X@X.X#XBXNXSXoX'.|.].|..XqXCXGXGXZXGXZX7X|.|..X XW.0XBXBXNX.X@X#X5X6XeX;X8.t.*.1 1 X ",
"o r # *.=.] (.~.E.[.#X#X7XAXzXVXaXdXlXqX*X@X9XaXyXdXaXaXfX+X.X#XpXhXpXdXmXbXVX*X8X7XE.E.!.t.! 8.%.@ 4 X ",
". , 0 ,.,.] 1./ D D.XX|.oXZXxXBXNXVXBXtX.X{.@X<X{.1X<XOX9X.X.X+XaXVXVXmXVXzXVXXX*XoXZ.` { 8.8.r.:.9 0 X ",
". , - ,.:.%.1./ I S.7X.X XAXmXmXBXxXSXaX@XOX<X<X^.}.`.Q.<X+X+X.XaXKXmXzXVXvXVX X*X-XS.` ( 8.9.9.+.2 4 X ",
"  r 0 9.8.7.0.} ( R.6X{.7XBXBXBXmXVXMXrX'. XoXrX-XtX8X7XqXXX.X|.tXBXVXmXNXmXCX$X=X7XT.| X...0.q.=.- r   ",
"  r % :.7.o.0.} ] R.6X}.*XBXBXBXzXzXSXpX X%XpXBXmXBXVXVXBXtX#X.XaXAXxXzXVXmXVXoX$X=XT.' | ..2.q.:.e r   ",
"  r 0 9.8.7.e.0.[ R.qXoX%XNXzXVXmXSXmX0XU.].tXAXBXNXbXNXNX*X].|.sXSXAXNXAXzXmX|.=X0XT.X.e.1.2.:.=.- r   ",
"o r # :.;.o.o.} ) R.XX}.*XAXmXVXzXvXVXdXoXoXtXAXnXlXNXAXAX8X.X*XdXBXxXzXAXbXAX.X*XoX3._ { &.:.:.-.- e   ",
"  > # ,.q.o.o...) R.*X.X*XBXbXvXqX*XoX XW.'.8XCXCXNXxXNXbXoX'.|.oX-X*XtXmXbXBX.X*X*XT. .<.&.2.9.>.- e   ",
"  q % 9.q.o.o.[ ( K.qX.X*XNXZXbX=XU.=X*XoX*XtXCXNXNXBXAXBX8X#XoX.X|.W.8XNXAXNXoX*XrXT. .<.&.:.4.>.# e X ",
"  q # :.;.] } ../ K.#X^.qXBXKXbXpXW. X|.'.#XtXZXZXGXNXVXBX8XoX.X.XXX].tXnXHXBX8XoXoX .) <._ &.:.:.0 e X ",
"  > 0 q.q.0.!./.Q.#XqX).#X0XaX0XhXhXhXtX+X.X#XdXqX9X-XtXsXXX.X#XtXhXhXgXqXtXqX%X*X8X@X{.OXQ.5.2.=.- e o ",
"  > % *.;.} ;XeX<X#XOX<X+X.X)..XxXZXSXqX.X@X.X^..X@XXX].'.oX.X|.sXHXGXlX{.'.#X.X*X%X6X6X9X~.[ 2.~ = e # ",
"  & 0 4.;.} ;XeX9X#X2XeX9X2X7X7XCXJXZXtX.X.X.X.X.X{.'.'..XoX|..XsXAXJXbX#X#X9X<XqX7X5X5X9XE.) w.:.e - o ",
"  q + 4.;.o.;XeX4XQ.T.~.~.Q.Q.E.dXkXfXyXtXtXtXsXdXqXtXaXsXpXtXtXsXfXkXqXE.E.^.E.^.Q.>X6XyX/.) 3.%.X : o ",
"  q % r.;.] !.3XeX).^ ) ) ) ) / ^.@X@XsXBXZXNXBXZXZXZXVXNXmXZXCXfX.X+XQ.K ^ | / ) ^ >X5X9XE.^ w.4.$ e # ",
"  & % ,.7.0.;XwX4XQ.] [ [ [ | ) OX<XW.fXGXJXBXBXVXVXAXBXmXNXJXJXdXQ.9XOX| | 3. .3...{.1XeX/.[ w.:.$ - X ",
". u y %.;.0.;XwX,XQ.} 1.} .. .| @X9X<XgXbXbXbXbXzXxXzXbXzXzXbXnXfX<X4X_.) ) ..] ..] /.<XeX_.{ &.~ e e # ",
"& h g w = $ M 0. .<.} } ] [ | ) OX7X^..X'.'..XXX|..XXXXXXX.X{.{.).).eX,X..1.e.;.e.0.| <.[ n @ $ d g Z s ",
"& g B 8 = 8 W R._ _ 0.0.} ....| ,X9X7X8XXX.X#X.X].oXXXXXXXXXXX@X2XeX,X_.] ] 0.} 0.;.{ w.w.A 2 $ d Z g e ",
"y z x @ t s @.y.6.y.9.-.%.:._ ) <X@X&X}.[.&X5X5X6X5X6X6X5X6X&X[.XX&X5X@X|  .2.q.:.9.9.9.y.! a 3 6 l z t ",
"S L F.l N g h f ; h 9.8.;.q. .) 7X@X5X&X@X@XE.`  . . . .X.^.&XXX&X}.&X}.[ [ 1.2.;.q.g s f g d z F F.$.S ",
"R G.V.k l g q : o Z t.e.} 1.[ / <X@X@X#X7XeXQ.( ( &.&.( _ ).qX7X@X{.1X}./ } ..} 0.t.h % % g N z v J.G.R ",
"L N.p.k j c 5 5 % B t.0.} 0.../ 1X4X4X2X4XuX_.%.%.-.9.%.&._.uX2X2X<X9X1X[ O.0.} 0.R.y @ @ y c j k p.N.R ",
"L N.k.H H L z y 7 l M M M } } ( ,X3X4X!.w.(.r.=.-.-.8.=.%.r.R.K.).4X,X,X' O.} M M C c l y L E J a.C.a.U ",
"U x.v.n.H.I.V l x l $ $ d ] 2.{ 3X4X4XR.~ ] ;.;.8.8.7.7.;.2._ ( R.4X3X:X] q.%.t $ + l l l G G.C.j.v.j.U ",
"K l.j.j.A.F.V 6 x 6 % - g >.r.&.wXwXiX!.] } } } 0.} ] o.} ..[ ) ~.iXuXwX_ r.,.r 0 % j x j F G.H.b.b.z.K ",
"P F.x.a.l.F.P z P l u q i +.+.Z (.;X_.w.[ ..O.O.e.X.O.O.X.X.| ) T._.:X(.N +.+.q q q x K V L L.l.j.A.A.P ",
"#.E N.h.B.G.$.$.G.G i B w 4 1 @ ~ _ &.{ [ } } } } } o.X.| | | | { { _ ~ + + y i T i h.F.G.G.F.V.x.V.G.S ",
"R E M.M.N.G.F.G.J.J y B y 1 1 4 *.(.&.;.2.2.q.q.q.q.0.0.1.<.<.<.<.*.r.#.2 1 4 y c 7 k.V.F.F.V.N.k.N.B.R ",
"L V.s.k.p.h.h.h.a.b 6 z z 1 3 t A =.=.,.,.>.>.,.,.>.8.,.:.*.*.*.*.*.:.~ t t 3 z z l i.v.n.k.s.s.f.s.M.E ",
"F s.u.f.i.j.C.x.n.s.K.P.K.n N n 9 9 - 0 : # # : ; : : : : : % % % 2 9 9 d n n K.L.G.d.c.b.b.v.c.f.f.s.J ",
"F z.i.v.g.z.A.l.z.g.K.K.` t n N 8 - : , ; ; ; , p f ; ; > > > > : : 0 d A C n K.F.` c.b.b.z.b.b.c.c.z.F ",
"P L J Y U P P K P K P S S 4 9 0 X o o . . .         . . . . . .   o   X s 8 y P $.L F K K K K H H H U P "
};
