/* XPM */
static char *wall_151666775013[] = {
/* columns rows colors chars-per-pixel */
"15 15 2 1 ",
"  c black",
". c white",
/* pixels */
"               ",
" ............. ",
" ............. ",
" ............. ",
" ............. ",
" ............. ",
" ............. ",
" ............. ",
" ............. ",
" ............. ",
" ............. ",
" ............. ",
" ............. ",
" ............. ",
"               "
};
