/* XPM */
static char *wall1666084099[] = {
/* columns rows colors chars-per-pixel */
"52 52 254 2 ",
"   c #030301",
".  c #0A0203",
"X  c #010C02",
"o  c #070809",
"O  c #180B0B",
"+  c #011402",
"@  c #011B01",
"#  c #08160B",
"$  c #011C0C",
"%  c #0C1D0C",
"&  c #13180A",
"*  c #1A0918",
"=  c #021D11",
"-  c #0B1C13",
";  c #191617",
":  c #131B14",
">  c #1A1B14",
",  c #1A1C1C",
"<  c #23131A",
"1  c #022203",
"2  c #03240C",
"3  c #052B0C",
"4  c #0A2809",
"5  c #15260C",
"6  c #043706",
"7  c #15350C",
"8  c #0A2617",
"9  c #0B2B14",
"0  c #112212",
"q  c #1A2214",
"w  c #162B17",
"e  c #14241B",
"r  c #1B241B",
"t  c #0C3315",
"y  c #1A3917",
"u  c #282D1C",
"i  c #25361D",
"p  c #1D1C21",
"a  c #211624",
"s  c #0C2E20",
"d  c #172922",
"f  c #173526",
"g  c #23262C",
"h  c #253829",
"j  c #2B3632",
"k  c #094308",
"l  c #114D0A",
"z  c #174916",
"x  c #1D4B1D",
"c  c #19561C",
"v  c #264819",
"b  c #28691A",
"n  c #2F721B",
"m  c #1B4825",
"M  c #1D5428",
"N  c #1D4A3A",
"B  c #254729",
"V  c #31462A",
"C  c #255827",
"Z  c #264836",
"A  c #334639",
"S  c #29553C",
"D  c #375B36",
"F  c #1F6F3A",
"G  c #2A6829",
"H  c #356B27",
"J  c #2A7424",
"K  c #357729",
"L  c #2C6936",
"P  c #3B6B34",
"I  c #376838",
"U  c #297838",
"Y  c #377737",
"T  c #3A7B35",
"R  c #414F2E",
"E  c #446A38",
"W  c #437A3A",
"Q  c #2A5644",
"!  c #2B5B44",
"~  c #39544E",
"^  c #385A48",
"/  c #2C6344",
"(  c #2C6A48",
")  c #346549",
"_  c #346C4C",
"`  c #3B6B4D",
"'  c #377548",
"]  c #2F6D52",
"[  c #386756",
"{  c #366D53",
"}  c #3C6C54",
"|  c #3B6C5B",
" . c #357253",
".. c #3C7253",
"X. c #3D735B",
"o. c #39775A",
"O. c #3C6C62",
"+. c #3B7664",
"@. c #445A49",
"#. c #47595A",
"$. c #456648",
"%. c #477845",
"&. c #446453",
"*. c #436B55",
"=. c #4B6C55",
"-. c #476559",
";. c #4C645A",
":. c #436C5B",
">. c #4C6C5B",
",. c #50665A",
"<. c #526B5C",
"1. c #437355",
"2. c #44735C",
"3. c #4A735E",
"4. c #47785D",
"5. c #53725E",
"6. c #537B5A",
"7. c #585769",
"8. c #476A64",
"9. c #4C6C65",
"0. c #536B66",
"q. c #447363",
"w. c #4B7463",
"e. c #4D7B64",
"r. c #497868",
"t. c #567868",
"y. c #527B73",
"u. c #676D7B",
"i. c #2A861E",
"p. c #298928",
"a. c #378729",
"s. c #34842C",
"d. c #348C2C",
"f. c #2A9729",
"g. c #33942C",
"h. c #2D8934",
"j. c #3C8435",
"k. c #348C34",
"l. c #3A8D34",
"z. c #388539",
"x. c #358C3A",
"c. c #3C8C3C",
"v. c #2D9632",
"b. c #339333",
"n. c #33933A",
"m. c #399438",
"M. c #39A63A",
"N. c #42892F",
"B. c #438835",
"V. c #43833C",
"C. c #438C3C",
"Z. c #44943A",
"A. c #3A8646",
"S. c #3D8B43",
"D. c #3C9747",
"F. c #33904B",
"G. c #488847",
"H. c #528949",
"J. c #479447",
"K. c #52924A",
"L. c #4A8756",
"P. c #4C8B54",
"I. c #558C58",
"U. c #499253",
"Y. c #579659",
"T. c #5DA24F",
"R. c #4C8665",
"E. c #558769",
"W. c #4D9367",
"Q. c #569867",
"!. c #5A936D",
"~. c #598976",
"^. c #5B9472",
"/. c #5C9C73",
"(. c #5D9C7B",
"). c #62916A",
"_. c #658979",
"`. c #619B73",
"'. c #649678",
"]. c #649A7A",
"[. c #5DA36B",
"{. c #59A468",
"}. c #54A96B",
"|. c #5DA272",
" X c #5CA777",
".X c #61A56D",
"XX c #63A86C",
"oX c #62A673",
"OX c #65AB73",
"+X c #69AD76",
"@X c #64A47B",
"#X c #69A67B",
"$X c #65AA7B",
"%X c #6BAD7B",
"&X c #71AF7D",
"*X c #69B176",
"=X c #64B27B",
"-X c #6DB37B",
";X c #72B47D",
":X c #72B97E",
">X c #689888",
",X c #759B8D",
"<X c #5EB182",
"1X c #6BA484",
"2X c #6CAB82",
"3X c #68A985",
"4X c #71AC85",
"5X c #74A78C",
"6X c #74AB8B",
"7X c #64B382",
"8X c #6CB686",
"9X c #72B483",
"0X c #74BA84",
"qX c #74B48B",
"wX c #78BA88",
"eX c #7ABD8B",
"rX c #7AA894",
"tX c #7AB594",
"yX c #7AC186",
"uX c #7DC18C",
"iX c #7DC394",
"pX c #82AE95",
"aX c #81B299",
"sX c #83C68E",
"dX c #83C593",
"fX c #84C994",
"gX c #87CA98",
"hX c #8ACC9C",
"jX c #8CD29D",
"kX c #90D29E",
"lX c #96CFAC",
"zX c #8ED1A2",
"xX c #95D9A7",
"cX c #9ADDA5",
"vX c #9BDEA9",
"bX c #A5DFAF",
"nX c #9DE1A7",
"mX c #9DE2AC",
"MX c #9FE3B2",
"NX c #A2E4AD",
"BX c #A8EAAD",
"VX c #A3E5B2",
"CX c #A5EAB4",
"ZX c #A9ECB5",
"AX c #A6E8B8",
"SX c #AAEDBA",
"DX c #ADF1BB",
"FX c #B1F3BC",
"GX c #ACECC1",
"HX c #B1ECC3",
"JX c #ADF1C1",
"KX c #AFF8C0",
"LX c #B2F5C3",
"PX c #B8F7C7",
/* pixels */
"P K b b b n H H H n T H K E H H H n K K J n n n K n b b H n J J J J b b b H G G K T p.K K Y T T p.s.K W ",
"G K a.a.g.a.W B.N.N.p.p.s.d.Z.Z.Z.N.d.d.d.a.p.a.a.a.k.k.k.h.h.h.h.x.J.c.c.G.F.x.n.h.f.f.g.n.n.b.b.g.a.W ",
"P G.Z.C.B.V.B.B.j.a.D.D.m.x.G.G.G.G.K.U.U.J.U.U.Z.J.U.U.U.F.U.U.L.U.P.P.G.A.A.D.D.F.f.g.n.c.c.x.k.l.C.E ",
"D %.j.T j.W %.V.c.x.h.A.L k 6 t 4 5 w w 8 3 4 2 7 4 t 9 8 t 9 8 9 9 9 4 3 6 z U U.D.g.l.S.S.A.c.x.c.G.%.",
"I G.J.m.S.S.S.c.n.v.A.P.P 3 @ 5 q > O ; , p g g d g , r d , , , , ; ; q & @ 6 K J.b.l.l.c.c.S.x.l.m.z.W ",
"I T p.p.b.n.x.v.v.f.G.Q.P 4 + & O O < * * < * * * * O O * ; < * * O . O & + 7 W T.Z.g.d.m.l.x.v.v.g.d.V.",
"L j.g.l.Z.G.Y G.J.J h Z Z ^ S Z e.4.1./ S Q ! Q Q Q Q Q ! ! S S ) q.4.t.B ! ^ A A j A.D.S.D.n.v.M.p.l.E ",
"G T s.s.s.T T H.G.c X $ f &.w.=.pXaXhX].| 2.R.e.t.y.e.e.y.e.2.o.'.lXaXpX=.w.#.f 0 # L G.G.A.p.p.f.f.J.I ",
"H T s.d.j.H.P.I.Y.I # $ f *.3.} 5X6X1XR./ / / ^ Q / ^ Q Q / ! _ E.6X5X1X^ w.&.s # # ' H.P.U.J.m.M.v.J.P ",
"I j.l.m.T H.I C I C f d Z *.1.) 4X6X`./.!.!.'.'.'.'.'.'.(.^.^.^.^.(.tX].) 5.| h s f E I I ' J.x.p.p.Z.P ",
"G j.a.s.T %.B @ 3 t ~.t.w.w...) 1X4XaXmXHXLXHXPXPXFXHXPXPXHXGXGXvXtX3X].! 4.t.>.t._.7 1 1 x V.c.m.J.z.I ",
"H C.C.j.I.I.m X $ B t.:.} } ) ) 4X4XE.gXPXPXAXNXAXbXbXbXbXVXLXJXiXR.2X3X/ ` X.` 9.y.y @ @ V ).Y.k.S.T Y ",
"I G.K.K H.1.h 8 8 A w.| } e.../ &X1X#XhXZXDXNXNXBXFXDXBXMXVXDXVXiX=X=XoX( o.q.} q.e.y 9 9 Z I.P.z.U.%.I ",
"I W T 6 6 t ~ t.8.0.2.| R.6XtX#XAXAXCXfXOXY.XXOXXXQ.{.XXoX|.{.[.iXDXSXMX@X6X3XR.4.+.6.t.<.Z 9 1 k G.G.E ",
"$.Y.T.3 + @ #.0.0.#.q.( 2.3X1X@XvXSXFX:XY.XX;X+XXX;X*X{.-X}.{.{.uXDXPXzX$X$X1X . .o.` =.t.^ = + 6 Y.Y.D ",
"@.%.P 6 3 $ ~ #.#.[ _ / o.4X2X9XzXCXFXfX*XXXXX+X{.{.XX{.-XXX*X*XjXKXCXhX8X2X%X .( _ ' _ :.N = 2 x ' %.D ",
"w y z L ;.~ >X,XrXrX]./.3XvXzXxXeXuX0X*XOX.XyXmXmXnXmXxXnX0X}.[.+X;X:XsXzXxXxX X@X3X$X3XrXy.~ ) S C y 4 ",
"  + 4 $.<.@.,XaXrX1XqX4XtXJXSXLX+XQ.OXOX*X[.uXSXDXMXVXSXCX0XOX*X&XXXY.yXZXJXSX2X8XtX=X3XtX,X8.y.) 1 1 X ",
"o 0 5 =.<.&.5XaX1X3X$XoX%XAXMXDX+X[..X[.[.oXuXAXJXKXJXJXSX:X.X.XXXXXY.yXZXCXCXOX$X=X7X8XtX>X9.t.=.1 1 + ",
"o r # =.&.&.~.!.W. X%X%X9XDXnXZXsXgXcXwX9X$X8XdXiXiXiXdXhX#XoX%XsXkXsXgXmXmXCX:X0X9X}.W.~.y.~ 9.&.@ 5 X ",
". , 0 0.0.[ >.( F F.=X|.*XZXnXZXVXZXZXsX#X.X$X3X/.3X2X@XqX].#X+XgXZXZXbXZXkXCXOX*X+XA.( o.r.0.0.>.3 5 + ",
"o a - <.;.O.2.( F F.0XOXXXDXmXNXCXvXFXsX#X@X2X%X/. X].!.&X#X#X`.gXFXBXnXFXNXZXXX-X:XD.' ) 9.0.0.$.$ 0 X ",
"  r 0 0.8.8.8.O.) E.=X X8XCXCXBXNXBXBXyX.XXXXXyX8XuX0X:XwXXXXXXXaXBXZXbXBXBXAX&X;X9XR. .o.X.w.w.>.- e   ",
"  q % <.8.O.q.| { E.0X[.:XCXNXZXkXnXFXsXXX+XsXZXmXCXZXZXZXsX#X+XdXSXcXcXZXnXAX+X&X&X+.] o.X.2.9.9.0 e   ",
"  r 0 0.9.8.q.+._ E.yX*X*XmXnXZXBXFXBXyXQ.{.uXDXCXCXmXCXmX=X{.OXfXFXFXZXDXxXNX.X;X9XE.o.e.q.3.>.-.# e   ",
". r % >.:.O.O.O.) E.$X X:XDXNXZXcXnXBXgX*XOXuXDXMXnXMXDXDX:XOX*XfXVXnXxXDXmXDXOX%X$XR.` ..*.>.<.;.: d   ",
"  > # <.w.O.O.O.{ E.-X.X=XCXmXnXyX+X+XXXQ.[.0XAXCXCXvXMXnX$X[.[.*X9X*XyXNXmXZX[.-X:XE.....*.3.t.,.- e   ",
"  q 5 5.r.O.O. ._ L.uXOX-XVXSXmX;XI.&X-X+X;XeXAXCXMXSXJXCX0X-X+XOX[.Q.yXZXZXCX*X-XyXL...1.*.=.<.;.# e   ",
"  q % >.:.[ O.o.) L.#XQ.wXAXPXNXpXT.XXXX[.+XiXSXSXJXVXZXCX0X$X.XOXoX{.uXCXKXCX0XOXOX ._ } } *.>.>.- d o ",
"  > 0 5.8.q.~.(.!.#XaXXX&X9XsXwXkXkXkXsX$XoX$XhXeXqX;XuXfXoXoX+XyXkXzXjXyXuXyX=X*XyX$X|. X!.6.3.-.- e o ",
"  > % =.| O.>XtX4X&X].&X#XoX`.oXmXSXLXeXoX+XoX/. X@X+X[.[.OX.X.XfXLXJXvX X{.+X X9X7X8X8XqX^.` 3.^ - r # ",
"  & 0 <.O.] >XrX4X%X6XtXqX4X9X4XAXLXSXeXoXoXoX X@X|.[.[.$XOXOXoXfXJXLXvX7X$XqX9XeX8X7X7X8X!._ e.3.e - o ",
"  q @ 5.8.O.>XtX6X^.E.^.^.!.!.W.gXzXhXdXuXiXiXfXgXeXuXdXiXuXuXuXfXhXzXtXW.W.^.W./.Q.<X8XiX>X] o.&.+ : o ",
". q & t.O.O.~.5XtX/.! _ _ _ _ ( /.$X$XfXCXSXVXAXSXAXZXSXCXmXDXSXhX X$X!.L /  .( _ / <X7XtXW./ e.5.= e # ",
"  > 5 =.8.8.>XrX6X!.) { {  .' _ @X2XQ.hXLXLXCXCXZXCXSXCXVXVXLXJXhX!.qX1X .{ 4.} 4.X.|.3XtX^._ e.>.$ - # ",
"X r i @.O.r.>XrX5X!.:.:.} o... .$XqX7XzXmXmXnXmXxXmXnXmXnXxXmXMXhX2X4X]._ { X.{ | } (.3XtX'.` *.^ e e % ",
"& j i w = = N O.1.` | | [ { ..( |.2X/.oX[.{.OXOX[.OX XXXOXOX|.|././.tX>X..2.w.:.r.q.{ +.} m + 2 f j A d ",
"O i j 8 = 8 ~ y._ ` 8.O.| X.o. .3XqX8X0X$XoX+XOX[.*XOXoXOXOXOXOX9XtX1X'.{ } q.| q.:.*.r.e.S 2 $ f A h e ",
"y c c @ t d #.u.7.u.0.;.&.3.*._ 9X X=X X}.=X7X7X8X7X8X8X7X8X=X}.OX=X=X<X .} 2.t.<.0.9.0.u.~ s 3 6 l x 7 ",
"D W G.z B h j g a j 0.9.-.4..._ 8X7X=X7X X=XW...o.' o...A./.=X*X=X X=X X{  .2.:.>.w.j s g h f m G G.W D ",
"E H.Z.l z i q : & j y.r.O.q.{ ( 3X3XoX2XqXtX).) ) *.*.^ $.`.wX;XoX|.<X3X]  .O.o.q.t.h & % i v v b K.H.E ",
"E B.N.l l v 5 4 % V y.q.[ q.o.( 3X6XqX3X6XpX'.&.&.,.0.&.*.'.pX4X4X6X3X3X] +.+.| q.~.i @ @ i v k l a.N.E ",
"H B.N.J H T m y 7 z N N Z | | ] 5X3X6X~.t._.t.-.;.,.9.-.&.t.E.6./.6X3X1X] O.| N N N v z v D W K s.Z.j.Y ",
"P j.b.l.J.P.G z c z $ $ f } >.[ 5X5XrXR.! } 9.:.0.9.8.8.:.3.` ) E.5X5X,X[ q.-.8 2 @ l x k H P.C.k.b.h.U ",
"I z.h.x.J.G.C 6 c 6 % % f ,.t.=.pXpXpX_.| { | | q.[ [ O.] O.] _ ^.aXaXrX` t.<.u 5 % k c k G P.J.b.n.z.L ",
"I G.c.T V.%.I M L l u q d @.@.A _.'.'.t.{ O.+.+.q.+.+.+.+.o. .] E.'.,X_.j @.@.q q 5 c P C I P.z.k.J.S.I ",
"E W j.j.V.H.%.%.H.K i V w 4 1 @ ^ ) *.| | { | | ] O.+.]  . ...` ` *.^ ^ + + i i R v V.G.H.H.G.B.m.C.H.D ",
"E W B.N.B.V.H.H.H.K y V v 1 1 4 =._.1.>.2.q.8.r.r.r.+.+.2.4.1.=.1.1.t.$.4 @ 7 7 v i l.C.G.G.C.N.N.N.V.P ",
"E Z.d.g.a.a.B.T s.n 6 x x 1 3 t S =.>.9.<.<.;.<.,.,.<.9.;.,.=.=.=.=.3.! t t 3 x x z p.g.l.k.d.g.g.d.B.W ",
"G l.i.g.p.l.Z.C.m.d.L.I.L.M B m 9 8 - - : # # > > ; > : : : % % - 4 8 9 f m x P.P.H.f.M.n.n.v.v.g.f.g.L ",
"G x.p.b.h.x.S.z.x.s.L.L.' t m B 8 - : , , ; ; a a u , , > > > > > : 8 f S N m L.G.' v.n.n.n.n.n.v.v.n.G ",
"I I U T Y I L L L L I D D 4 0 0 X   o o . .   .   . . . . . . .   o   o r - y I %.I J L I L L G J J Y I "
};
