/* XPM */
static char *wall1666178303[] = {
/* columns rows colors chars-per-pixel */
"60 60 2 1 ",
"  c black",
". c white",
/* pixels */
"                                                            ",
" .......................................................... ",
" .......................................................... ",
" .......................................................... ",
" .......................................................... ",
" .......................................................... ",
" .......................................................... ",
" .......................................................... ",
" .......................................................... ",
" .......................................................... ",
" .......................................................... ",
" .......................................................... ",
" .......................................................... ",
" .......................................................... ",
" .......................................................... ",
" .......................................................... ",
" .......................................................... ",
" .......................................................... ",
" .......................................................... ",
" .......................................................... ",
" .......................................................... ",
" .......................................................... ",
" .......................................................... ",
" .......................................................... ",
" .......................................................... ",
" .......................................................... ",
" .......................................................... ",
" .......................................................... ",
" .......................................................... ",
" .......................................................... ",
" .......................................................... ",
" .......................................................... ",
" .......................................................... ",
" .......................................................... ",
" .......................................................... ",
" .......................................................... ",
" .......................................................... ",
" .......................................................... ",
" .......................................................... ",
" .......................................................... ",
" .......................................................... ",
" .......................................................... ",
" .......................................................... ",
" .......................................................... ",
" .......................................................... ",
" .......................................................... ",
" .......................................................... ",
" .......................................................... ",
" .......................................................... ",
" .......................................................... ",
" .......................................................... ",
" .......................................................... ",
" .......................................................... ",
" .......................................................... ",
" .......................................................... ",
" .......................................................... ",
" .......................................................... ",
" .......................................................... ",
" .......................................................... ",
"                                                            "
};
