/* XPM */
static char *_946c1acbf2940f4b75cfa5d38f2430f[] = {
/* columns rows colors chars-per-pixel */
"52 52 185 2 ",
"   c #103F1B",
".  c #0A4A0E",
"X  c #0F4D12",
"o  c #0C441B",
"O  c #0C4A1B",
"+  c #134E14",
"@  c #18421E",
"#  c #16491A",
"$  c #07561F",
"%  c #145115",
"&  c #12511D",
"*  c #195718",
"=  c #1D5A1C",
"-  c #225D1E",
";  c #285F1C",
":  c #136417",
">  c #16631B",
",  c #1B661B",
"<  c #17681B",
"1  c #1D6A1E",
"2  c #157416",
"3  c #23631E",
"4  c #236C1D",
"5  c #23721F",
"6  c #104720",
"7  c #144C24",
"8  c #1B4D26",
"9  c #0C5423",
"0  c #0D5C25",
"q  c #165127",
"w  c #1B5523",
"e  c #1B5E22",
"r  c #14572B",
"t  c #1E552D",
"y  c #105E2A",
"u  c #1D5B2A",
"i  c #195730",
"p  c #1C5937",
"a  c #225425",
"s  c #235E24",
"d  c #2A5827",
"f  c #225C2C",
"g  c #295E2D",
"h  c #245A31",
"j  c #2B5D32",
"k  c #275F3A",
"l  c #0D6725",
"z  c #136526",
"x  c #1D6325",
"c  c #106B26",
"v  c #1E6B24",
"b  c #14642B",
"n  c #1D642C",
"m  c #156A2B",
"M  c #1C6A2B",
"N  c #1E7121",
"B  c #1A6533",
"V  c #1A6534",
"C  c #166932",
"Z  c #1C6A32",
"A  c #1E6C38",
"S  c #1D7134",
"D  c #226425",
"F  c #2A6524",
"G  c #226A24",
"H  c #2A6A24",
"J  c #23662A",
"K  c #2A652C",
"L  c #246A2B",
"P  c #2A6B2D",
"I  c #306726",
"U  c #3B6F25",
"Y  c #336D2C",
"T  c #217424",
"R  c #2A7423",
"E  c #24722D",
"W  c #2B722D",
"Q  c #2C792C",
"!  c #33742E",
"~  c #377B2E",
"^  c #246632",
"/  c #2C6534",
"(  c #256B32",
")  c #2B6D32",
"_  c #2E603A",
"`  c #256A39",
"'  c #2A6E3A",
"]  c #316534",
"[  c #326D33",
"{  c #33663A",
"}  c #336C3B",
"|  c #3C6E3D",
" . c #257332",
".. c #2D7334",
"X. c #207935",
"o. c #2D7A34",
"O. c #25733C",
"+. c #2C733B",
"@. c #267A3B",
"#. c #2D7B3C",
"$. c #337435",
"%. c #3A7435",
"&. c #337B35",
"*. c #3A7934",
"=. c #337539",
"-. c #3B753A",
";. c #347A3C",
":. c #3B7B3C",
">. c #42733D",
",. c #407D3D",
"<. c #2A6642",
"1. c #3C6E4A",
"2. c #277541",
"3. c #297641",
"4. c #2C7C41",
"5. c #357342",
"6. c #3B7542",
"7. c #337B43",
"8. c #3B7B43",
"9. c #3F714D",
"0. c #347A48",
"q. c #3C7B49",
"w. c #367E50",
"e. c #3A7F52",
"r. c #4A6B4E",
"t. c #407547",
"y. c #427C44",
"u. c #40724F",
"i. c #547B4E",
"p. c #466D54",
"a. c #437551",
"s. c #487055",
"d. c #477956",
"f. c #497B57",
"g. c #48725C",
"h. c #4A7C59",
"j. c #537455",
"k. c #53795C",
"l. c #5B7C5C",
"z. c #2D803A",
"x. c #368534",
"c. c #35813C",
"v. c #3B833D",
"b. c #378A38",
"n. c #41823B",
"m. c #49943F",
"M. c #388043",
"N. c #34864A",
"B. c #3F925A",
"V. c #408447",
"C. c #50824D",
"Z. c #4F815C",
"A. c #50825D",
"S. c #449C52",
"D. c #568565",
"F. c #609A67",
"G. c #618770",
"H. c #6A9676",
"J. c #71957B",
"K. c #729A7D",
"L. c #FFB300",
"P. c #FFD600",
"I. c #FCC02C",
"U. c #FFEE58",
"Y. c #759C81",
"T. c #7B9F85",
"R. c #7EA789",
"E. c #7DB28D",
"W. c #82AA8D",
"Q. c #8BB685",
"!. c #86AF91",
"~. c #93A996",
"^. c #8DB495",
"/. c #95B296",
"(. c #9AB195",
"). c #91B699",
"_. c #94BA9D",
"`. c #9DBD9B",
"'. c #A2BC9F",
"]. c #98BCA2",
"[. c #97C98A",
"{. c #A3C89C",
"}. c #99C2A4",
"|. c #A0C4AA",
" X c #F8E9A3",
/* pixels */
"~.G.D.D.k.l.l.j.s.s.a.u.1.9.f.A.f.9.d.h.Z.A.Z.Z.f.a.d.9.u.d.f.h.f.u.1.1.a.d.f.a.9.1.r.r.p.g.k.j.i.C.F.H.",
"Y.<.e.3.' } / f q r 0 0 b A 3.3.Z 0 9 0 b B B b 0 $ b 9 0 b A 2.O.B y b Z O.O.A B b g t i p k { $.$. .` ",
"E.w.B.N.#.;.;.( M S z z m X.4.4.X.Z m S @.4.#.X.Z U.U.z z m S 4.#.m z m S @.#.S m z L n B A ' -.:.c.S.N.",
"E.^ N.@.E E E E  .X. .J M J L  . ...J L  .;.;.L  XU.U.W ......;.;.J M G  .;.;...L L ..L n Z ' ) W Q b.@.",
"^.w 7...G 3 H W o.z.P D - s D s K $.-.-.:.,.:.$. XU.I.U.:.-.$.:.-.F F F Y :.,.-.$.-.$.L x n ^ D 3 4 o. .",
"/.j 8.$.F - F ! ;.;.K s s F F D P -.:.-.-.-.%. XU.U.I.I. X-.$.:.:.F D D P -.:.-.-.:.:.P x ^ / d ; H &.=.",
"(.d 6.[ F F I Y $.W P P P P K D P ;.;.=.$.=.$. XU.U.I.I.U.=.=.=.=.G D D P $.;.=...P Y K J ^ ] ] I H $.] ",
"~.@ / K D F F K L J #.#.#...M n  .;.#.#.;.7. XU.U.I.I.I.I. X;.#.;.L x M  .o.;...L v F J n ` { -.%.W M J ",
"/.  f n D D D D x z ;.;.;. .n z L #.#.#.;.M. XU.I.P.P.I.I.U.;.#.;.L x M  .;.;...M x v n M V ' 8.:.o.z n ",
").6 ` Z n J J M m m +.;.7.) n e ( +.+.+.=. XU.U.I.P.P.P.I.I. X=.=.J J J ) =.;...P L , M C C O.8.;. .l V ",
"^.q 0. .n M J M m m [ 8.8.$.J J K ) K )  XU.U.I.P.P.P.P.I.I.U.-.-.K J K ) -.:.=.P K , M m C O.7.;.E l V ",
").h q...M D J M z m [ :.8.[ K J J D s K  XU.U.I.P.P.P.P.P.I.I. X8.) D K [ 8.8.=.K s 3 v z B ' 6.:. .z B ",
"`.j q.) K K P D x m W ;.:.W G L G x x  XU.U.I.P.P.P.P.P.P.I.I.I. XP x J ) =.;...P J H F x ^ } >.-.$.x ^ ",
"`.a 6.[ [ %.[ K M M ..c.c...L ....J x  XU.U.I.P.P.P.P.P.P.P.I.I.U.x M M M L  . . ...U F D ^ | >.%.! e / ",
"}.t q.;.&.:.-.) n n $.;.;.;.8.:...L  XU.U.U.P.P.P.P.P.P.P.P.I.I.I.e P D x x x L ..8.=.P v v ) 6.6.L < D ",
"}.h 7.;.&.:.-.P n n =.;.;.;.;.;...J  XU.U.I.P.P.P.P.P.P.P.P.P.I.I.U.J D x J J P $.8.=.P v v ) 5.6.W 1 D ",
"_.q +...$.*.=.P n n ....) ..;.;... XU.U.U.P.P.P.P.P.P.P.P.P.P.I.I.I. XL P ) ) ) ..=.-.L , v ) 5.6..., 3 ",
"^.o ( L ..*.=.P n Z J D D P =.;...U.U.U.I.P.P.P.P.P.P.P.P.P.P.P.I.I.U.J ) $.=.=.=.=.-.G > v ..5.6...< 3 ",
"!.o J L ..*.$.K n Z x e x ) ;.;. XU.U.I.P.P.P.P.P.P.P.P.P.P.P.P.I.I.I. XP =.8.:.;.;.-.D > v ..8.6.W , D ",
"W.O n L $.*.=.K n Z J x J ..;. XU.U.U.P.P.P.P.P.P.P.P.P.P.P.P.P.P.I.I.U...;.:.;.....=.L v L ..8.8.L , 3 ",
"R.6 n L &.:.=.K n Z L D J ..;. XU.U.I.P.P.P.P.P.P.P.P.P.P.P.P.P.P.I.I.I. X;.;...J x ) ..o.....8.q.W < = ",
"W.6 J ( ;.,.=.K n Z J x D )  XU.U.U.P.P.P.P.P.P.P.P.P.P.P.P.P.P.P.P.I.I.U. X=.) J D K $.v.;.+.8.q..., 3 ",
"K.7 ^ L ..*.=.P J Z P J x P  XU.U.I.L.L.L.L.L.L.L.L.L.L.L.L.L.L.L.L.L.I.I. X;.$.x J K -.&.o.+.5.q...< * ",
"K.7 ^ J P P P K n Z P J x  XU.I.L.L.L.L.L.L.L.L.L.L.L.L.L.L.L.L.L.L.L.L.L.I. X=.x L f =.&.o.) / } L G = ",
"K.7 ^ J D D D e n Z L J D  X X X X X X X X X X X X X X X X X X X X X X X X X X=.x J f ;.c.o.( f ^ x G = ",
"K.7 J J D D D D J ( P J  X X=.=...;.;.;.P x J ) :.;.) D J J D J J $.;.=.;.=. X Xx J K :.;.o.) ^ / M G = ",
"K.7 n L P Y [ ) +.+.L J U.U.) P ) :.;.;.P D D L ..P ..P =.) J D D $.;.=.;.=.U. Xx J K $.E ..+.' 5.) G = ",
"K.q ^  .&.*.:.:.7.7.J  XU.I. XD P ;.;.;.P D x x L e ....8.=.J x x ..:.;.;. XU.I.M P s K x M +.5.q...v = ",
"K.q J  .&.*.-.:.7.7.L U.U.I.U.x L ;.=.;.P D x x P x ....M.=.J x x $.;.=.;.U.U.I.U.P J K > M +.5.q...v = ",
"K.q J ( W ! $.=.7.4. XU.U.I.I. XP ;.=.;.P J J P ..P ....8.$.J D J =.;.$. XU.U.I.I. X) ) J  .+.5.5. .v = ",
"J.t ^ J G 3 3 $.;.#.U.U.U.I.I.I.P :.;.$.L D L ..;.;.;.=.8...J D D =.;.=.U.U.U.I.I.I.F =.#.7.7.;.:.W v u ",
"J.7 ^ M D 3 F $.;. XU.U.U.I.I.I. X;.;.=.P x x P $.;.8.=.:.=.P J x ..;. XU.U.P.I.I.I. X=.#.7.7.;.:.W x w ",
"K.7 ( J D 3 H $.;.U.U.U.P.P.I.I.I...$...) J J P $.;.8.) ....) J x .. XU.U.U.P.P.I.I.I.;.;.7.+...&.W v u ",
"Y.7 ' J D F H $. XU.U.P.P.P.I.I.I. XD P $.=.$.$.;.;.$.D L P J x x =.U.U.U.P.P.P.I.I.I. X7.4.' J P G M w ",
"T.6 ( M D F F  XU.U.I.P.P.P.P.P.I.I. XL =.:.;.;.=.;.) e x D x x x  XU.U.I.P.P.P.P.I.I.I. X4.` e D 1 J u ",
"W.7 ^ M G H H U.U.U.P.P.P.P.P.P.I.I.U.L ..;.;...$.;...D J x D L J U.U.U.P.P.P.P.P.P.I.I.U.7.' x G G L f ",
"_.t ' L W !  XU.U.I.P.P.P.P.P.P.P.I.I. X..=.=...=.;...J J J ) =. XU.U.I.P.P.P.P.P.P.P.I.I. X+.D G G > u ",
"|.t 7.;.v.n.U.U.U.P.P.P.P.P.P.P.P.I.I.U...;.:.;.;.8...J J J =.V.U.U.U.P.P.P.P.P.P.P.P.I.I.U.+.x D 1 v ^ ",
"].t =.;.&. XU.U.I.P.P.P.P.P.P.P.P.P.I.I. X;.;.;.;.;.P P P M 8. XU.U.I.P.P.P.P.P.P.P.P.P.I.I. XK G G x u ",
"].8 ) ..&.U.U.U.P.P.P.P.P.P.P.P.P.P.I.I.U.;.;...) P P J J x ;.U.U.U.P.P.P.P.P.P.P.P.P.P.I.I.U.J D G x u ",
").6 J L  XU.U.I.P.P.P.P.P.P.P.P.P.P.P.I.I. X;.) J D J J J x  XU.U.I.P.P.P.P.P.P.P.P.P.P.P.I.I. XD 1 v u ",
").o n  XU.U.U.P.P.P.P.P.P.P.P.P.P.P.P.I.I.U.=.P J D J J J  XU.U.I.P.P.P.P.P.P.P.P.P.P.P.P.I.I.U.D 1 J f ",
"^.o ( U.U.U.I.P.P.P.P.P.P.P.P.P.P.P.P.P.I.I. X) J D J J L U.U.U.I.P.P.P.P.P.P.P.P.P.P.P.P.P.I.I. XG L u ",
"^.o  XU.U.I.P.P.P.P.P.P.P.P.P.P.P.P.P.P.I.I.I. XJ D J J  XU.U.I.P.P.P.P.P.P.P.P.P.P.P.P.P.P.I.I.I. Xv u ",
").# U.U.U.I.P.P.P.P.P.P.P.P.P.P.P.P.P.P.P.I.I.U.D M J J U.U.U.I.P.P.P.P.P.P.P.P.P.P.P.P.P.P.P.I.I.U.J u ",
"_. XU.U.I.L.L.L.L.L.L.L.L.L.L.L.L.L.L.L.L.I.I.I. XD J  XU.U.I.L.L.L.L.L.L.L.L.L.L.L.L.L.L.L.L.I.I.I. Xf ",
"Q.U.I.I.L.L.L.L.L.L.L.L.L.L.L.L.L.L.L.L.L.L.L.I.U.2 c U.I.I.L.L.L.L.L.L.L.L.L.L.L.L.L.L.L.L.L.L.L.I.U.T ",
" XI.L.L.L.L.L.L.L.L.L.L.L.L.L.L.L.L.L.L.L.L.L.L.I. X XI.L.L.L.L.L.L.L.L.L.L.L.L.L.L.L.L.L.L.L.L.L.L.I. X",
"'.# y.%./ h _ } :.v.L P J n J L ^ K K { } 6.t.} j g K ] K K K - - -.! *.! ! &.W D D j } 7.=./ j _ ) ..=.",
"{.F n.$.) ] } ] P L 1 1 1 v v J P $.=.=./ / { ] g j / / g K P - 3 *.*.&.Q R R 5 1 1 j / ) ) / { } $.b.v.",
"[.R m.b.:.y.y.[ G , T 1 N T v < v &.&.&.L e D J D K ` J u ( ) M J ;.o.Q G < , < : < / K J L $.8.:.x.b.x.",
"Q.F ~ ! P ] j a + % % + + % + . % D D D % . X % X % 9 O O & & O & u ` ^ f & w w w a 8 # X % a j K D R &."
};
