/* XPM */
static char *_4a45076f0be4117bd93d93fbbe4bdbf[] = {
/* columns rows colors chars-per-pixel */
"52 52 203 2 ",
"   c #103F1B",
".  c #0A4A0E",
"X  c #0F4D12",
"o  c #0C441B",
"O  c #0C4A1B",
"+  c #134717",
"@  c #134E14",
"#  c #18421E",
"$  c #12491F",
"%  c #1C4A19",
"&  c #07561F",
"*  c #145115",
"=  c #12511D",
"-  c #195718",
";  c #1C5B1D",
":  c #225D1E",
">  c #285F1C",
",  c #0C6818",
"<  c #136417",
"1  c #16631B",
"2  c #1B661C",
"3  c #14691A",
"4  c #1D6A1E",
"5  c #157416",
"6  c #167318",
"7  c #1B701F",
"8  c #23631E",
"9  c #28631F",
"0  c #236C1D",
"q  c #23721F",
"w  c #104720",
"e  c #144C24",
"r  c #1B4D26",
"t  c #0C5423",
"y  c #0D5C25",
"u  c #165127",
"i  c #1B5523",
"p  c #1B5E22",
"a  c #14572B",
"s  c #1E552D",
"d  c #105E2A",
"f  c #1D5B2A",
"g  c #195730",
"h  c #1C5937",
"j  c #225425",
"k  c #235D24",
"l  c #2A5827",
"z  c #225C2C",
"x  c #295E2D",
"c  c #245A31",
"v  c #2B5D32",
"b  c #275F3A",
"n  c #0D6725",
"m  c #146426",
"M  c #1D6325",
"N  c #106A26",
"B  c #1D6A24",
"V  c #14642B",
"C  c #1D652B",
"Z  c #156A2B",
"A  c #1C6A2B",
"S  c #1E7222",
"D  c #1E7C24",
"F  c #1C722E",
"G  c #166430",
"H  c #1A6533",
"J  c #166932",
"K  c #1C6A32",
"L  c #1B633C",
"P  c #1E6C38",
"I  c #1D7233",
"U  c #226425",
"Y  c #2A6524",
"T  c #226A23",
"R  c #2A6A24",
"E  c #226629",
"W  c #2A652B",
"Q  c #256A2C",
"!  c #2A6C2D",
"~  c #306726",
"^  c #3B6F25",
"/  c #326D2B",
"(  c #227425",
")  c #2A7423",
"_  c #24722D",
"`  c #2B722D",
"'  c #247B28",
"]  c #2C792C",
"[  c #33742E",
"{  c #377B2E",
"}  c #236632",
"|  c #2C6534",
" . c #256B33",
".. c #2B6E32",
"X. c #2E603A",
"o. c #256A39",
"O. c #2A6E3A",
"+. c #316534",
"@. c #326D33",
"#. c #33663A",
"$. c #336C3B",
"%. c #3C6E3D",
"&. c #257233",
"*. c #2D7234",
"=. c #207935",
"-. c #2D7A34",
";. c #25733C",
":. c #2C733B",
">. c #267A3B",
",. c #2D7A3C",
"<. c #327535",
"1. c #3A7534",
"2. c #337A34",
"3. c #3A7934",
"4. c #327639",
"5. c #3A763B",
"6. c #357A3C",
"7. c #3A7B3C",
"8. c #42733D",
"9. c #407D3D",
"0. c #286A45",
"q. c #3C6E4A",
"w. c #277541",
"e. c #2A7642",
"r. c #2D7B41",
"t. c #2D764B",
"y. c #357342",
"u. c #3B7542",
"i. c #337B43",
"p. c #3B7C42",
"a. c #3F714D",
"s. c #347A48",
"d. c #3C7B49",
"f. c #367E50",
"g. c #3A7F52",
"h. c #4A6B4E",
"j. c #407547",
"k. c #427C44",
"l. c #40724F",
"z. c #547B4E",
"x. c #466D54",
"c. c #437551",
"v. c #487055",
"b. c #477956",
"n. c #497B57",
"m. c #48725C",
"M. c #4A7C59",
"N. c #537455",
"B. c #53795C",
"V. c #5B7C5C",
"C. c #19811E",
"Z. c #238027",
"A. c #25832A",
"S. c #28822A",
"D. c #278A2D",
"F. c #2B8232",
"G. c #2D803A",
"H. c #368534",
"J. c #3E8937",
"K. c #34823B",
"L. c #3A843D",
"P. c #358A38",
"I. c #41823B",
"U. c #49943F",
"Y. c #348042",
"T. c #3B8042",
"R. c #34864A",
"E. c #3F925A",
"W. c #408447",
"Q. c #50824D",
"!. c #4F815C",
"~. c #50825D",
"^. c #449C52",
"/. c #538260",
"(. c #59876A",
"). c #609A67",
"_. c #618770",
"`. c #659973",
"'. c #6E9278",
"]. c #71957B",
"[. c #729A7D",
"{. c #759C81",
"}. c #7B9F85",
"|. c #7EA789",
" X c #7DB28D",
".X c #82AA8D",
"XX c #8BB680",
"oX c #8BB689",
"OX c #86AF91",
"+X c #93A996",
"@X c #8DB495",
"#X c #95B296",
"$X c #9AB195",
"%X c #91B699",
"&X c #94BA9D",
"*X c #9DBD9C",
"=X c #A2BC9F",
"-X c #96BAA0",
";X c #9ABEA4",
":X c #97C98A",
">X c #A3C89C",
",X c #99C2A4",
"<X c #A0C4AA",
/* pixels */
"+X_.(./.B.V.V.N.v.v.c.l.q.a.n.~.n.a.b.M.!.~.!.!.n.c.b.a.l.b.n.M.n.l.q.q.c.b.n.c.a.q.h.h.x.m.B.N.z.Q.).`.",
"{.0.g.e.O.$.| z u a y y V P w.w.K y t y V H H V y & V t y V P w.w.H d V P ;.;.P G V x s g h b #.<.<.&.o.",
" Xf.E.R.,.6.4. .A I Z m Z =.r.r.=.K Z I >.r.,.=.K Z Z m Z Z I r.,.Z m Z I >.,.I Z Z Q C H P O.5.7.K.^.R.",
" X} R.>._ _ _ _ &.=.&.E C E Q &.&.*.Q Q &.4.4.Q C C Q ` *.*.*.6.4.E C T &.6.6.*.Q Q *.Q H K O...` ] P.:.",
"@Xi i.*.T 8 R ` -.G.! U : k U k W <.5.1.7.9.7.<.W W / <.7.1.<.7.1.Y Y Y / 7.9.1.<.1.1.Q M C } U 8 0 -.&.",
"#Xv p.<.Y : Y [ 6.6.W k k Y Y U W 5.7.5.5.5.1.W U U W <.7.1.<.7.7.Y U U W 1.7.1.1.7.7.! M } | l > R 2.4.",
"$Xl u.@.Y Y ~ / <.` ! ! ! ! W U ! 6.6.4.<.4.<.! Q W ! 5.4.4.4.4.4.Q U U ! <.6.4.*.! / W E } +.+./ R <.+.",
"+X# | W U Y Y W Q E ,.,.,.*.A C &.6.,.,.6.i.6.&.C m Q 6.4.,.6.,.6.Q M A &.,.6.*.Q B Y E C } #.5.1.` A E ",
"#X  z C U U U U M m 6.6.6.&.C m  .,.,.,.6.Y.6.&.C m Q 6.,.6.6.,.6.Q M A &.6.6.*.A M M M A H O.d.7.-.m C ",
"%Xw o.K C E E C Z Z :.6.i...C p  .:.:.:.4.i.4...E E Q 6.6.6.6.4.4.E E E ..4.6.*.Q Q 2 A J J ;.d.6.&.n J ",
"@Xu s.&.C C E A Z Z @.p.p.<.E E W ..W ..4.5.4...E U ! 5.5.5.5.5.5.W E W ..5.5.<.! W 2 A Z J ;.i.6._ n J ",
"%Xc d.*.C U E C m Z @.7.p.@.W E E U k W <.7.5.! U k ! 5.5.5.5.5.p...U W @.p.p.4.W k 8 B m H O.u.5.&.m H ",
"*Xv d...W W ! U M Z ` 6.7.` T Q T M M U *.6.<.! U U ! 6.4.4.4.4.6.Q M E ..4.6.*.Q E R Y M } $.8.5.<.M } ",
"*Xj u.@.@.1.@.W C A *.K.K.*.Q *.*.E M B Q *._ Q _ *.&.6.,.*.&.&.*.M A C A Q &.&.*.*.^ R U } %.8.1.[ p } ",
",Xs d.6.2.7.5...C C <.6.6.6.p.7.*.Q Q U E E U ! 6.p.6.4.4...E E E p Q U M M M Q *.p.4.! B B ..u.u.Q 1 Y ",
",Xc i.4.2.7.5.! C C 4.6.6.6.6.6.*.E Q E E Q E ..6.p.<.4.6.*.E E Q U E U M E E Q <.p.5.! B B ..y.u.` 4 U ",
"&Xu :.&.<.3.4.! C C *.*...*.6.6.*.E Q E E Q E ..6.6.<.4.p.4.E M Q E Q Q Q ......*.4.5.Q 2 B ..y.u.*.2 8 ",
"@Xo  .Q <.3.4.! C K E U U ! 4.6.*.E E M E Q E ..6.4.6.6.p.6.E M E U E E ..<.4.4.4.4.5.U 1 B *.y.u.*.1 8 ",
"OXo E Q *.3.<.W C K M p M ..6.6.*.E E M E E E *.6.4.6.6.6.4.Q M E M p M Q 4.p.7.6.6.5.U 1 B *.p.u.` 2 U ",
".XO E Q <.3.4.W C K E M E *.6.6.*.Q Q E E U U *.6.4.6.<.4.4.Q U Q Q Q Q *.6.7.6.*.*.4.Q B Q *.p.p.Q 4 8 ",
"|.w C Q 2.7.4.W C K Q U E *.6.6.4.*.<...Q U M *.7.4.6.4.6.4.Q M Q *.6.4.4.6.6.*.E M ..*.-.*.*.p.d.` 1 ; ",
".Xw E  .6.9.4.W C K E M U ..4.6.6.6.7.4...E M *.p.4.6.6.p.6.E p Q *.6.4.4.6.4...E U W <.L.6.:.p.d.*.2 8 ",
"[.e } Q *.3.4.! E K Q E M Q 6.6.<.4.4.6.Q E Q ..6.*.6.*.6.6...E M 6.6.4.6.4.6.<.M W W 5.2.-.:.y.d.*.1 - ",
"[.e } E ! ! W W C K Q E M ! 6.6.*.4.6.6.Q U E ..6.4.*.E ..! E U M 4.6.4.6.4.6.4.U Q z 4.2.-...| $.Q T - ",
"[.e } E U U U p C K Q E U ..6.6.*.6.6.6.Q M E ..p.6...M M M M E U *.6.4.6.4.6.4.M E k 6.K.-. .z } M T ; ",
"[.e E E U U U U E  .Q E E ! 4.4.*.6.6.6.Q M E ..7.6...U E E U E E <.6.4.6.4.6.<.M E W 5.6.,...} | C T ; ",
"[.e C Q ! / @...:.:.Q E M E ..! ..7.6.6.Q U U Q *.Q *.! 4...E U U <.6.4.6.4.6.4.M E W <._ &.:.O.y...T ; ",
"[.u } &.2.3.7.5.i.i.E E M M E U Q 6.6.6.Q U M M Q p *.*.p.4.E M M *.7.6.6.4.6.4.C Q k W M A :.y.d.*.M ; ",
"[.u E &.2.3.5.5.i.i.Q Q U U E M Q 6.4.6.Q U M M Q M *.*.T.4.E M M <.6.4.6.*.4.*.M Q E W 1 A :.y.d.*.M ; ",
"[.u E  .` [ <.4.i.r.Q ! Q Q Q E Q 6.4.6.Q E E Q *.Q *.*.p.<.E U E 4.6.<.<...*...M E ....E &.:.y.y.&.M ; ",
"'.s } E T 8 8 <.6.,.*.6.p.<.C ; Q 7.6.<.! U Q *.6.4.6.4.p.*.E U U 4.6.4...E E E E M Y 4.,.i.i.6.7.` M f ",
"].e } C U 8 Y <.6.*.4.6.6.&.M M Q 6.6.4.! M M ! <.6.p.4.7.4.Q E M *.6.4...E M E E M 9 4.,.i.i.6.7.` M i ",
"[.e  .E U 8 R <.6.*.6.6.4.*.Q Q ! *.<.*.! E E ! <.6.p.&.*.*...E M *.6.4...E M Q Q Q R 6.6.i.:.*.2.` B f ",
"{.e O.E U Y R <.6.*.<.6.6.6.6.4.*.E U ! <.<.<.<.4.6.<.U Q Q E M M 4.7.6...E E ! <.4./ 7.i.r.O.E ! T C i ",
"}.w  .C U Y Y <.6.,.<.6.6.6.7.p.*.M p Q <.7.6.4.4.6.&.M M U M M M 4.p.6...U M ..6.p.1.7.6.r. .p U 4 T i ",
".Xe } C T R R ` 4.,.<.6.6.*.4.7.<.C C Q *.6.4.*.<.6.*.U E M U Q E *.6.4...M M Q <.6.1.7.,.i.O.M U T Q z ",
"&Xs O.Q ` [ ! ! &.Q *.6.6.*.*.7.<.U E Q *.4.4.*.4.6.*.E E E ..4...Q ....Q M M Q *.6.1.6.:.r.:.U T T 1 f ",
"<Xs i.6.L.I.[ Q C m ..7.T.4.6.T.<.M U Q *.6.7.6.6.p.*.E E E 4.W.*.E M E E E E ..4.6.1.4.&.r.:.M U 4 B } ",
";Xs 4.4.2.3./ U C C <.6.6.4.6.6.*.E E Q &.4.6.6.4.4.Q Q Q U p.6.4.Q M Q E E E Q 6.6.[ 4.,.:. .W U T M f ",
"-Xr ..*.2.3.1.! C C <.6.6.<...! ..! *.*.<.6.6.*...! Q E E M 6.6.<.Q M ! E E E Q 4.4.1.6.i.:. .E U T M f ",
"%Xw E Q [ 3.<.Q M m <.6.7.*.U M ! 4.6.4.6.6.4.&.E U E E E M 6.4.*.Q M Q U E E Q 6.6.1.5.i.:. .E U 4 B f ",
"%Xo C Q [ 3.<.Q M V <.6.6.&.M M ! 7.6.4.6.6.4.! E U E E E M 5.4.<.! p E M E Q ..7.5.[ 6.i.r. .U U 4 E z ",
"@Xo Q ` 2.3.3.*. .&.&.&.&.! U M Q 6.4.<.4.6.4...E U E E Q M 6.4.4.*.Q ..E E E Q 4.*./ <.i.:. .U U 0 Q f ",
"@Xo E Q [ 3.3.<.:.i.Q U U Q E M Q 4.4.4.6.6.4.! E U E E Q M 6.6.6.*.4.6.! Q E M Q U R *.6.:. .U U T B f ",
"%X$ E Q ` 3.1.<.6.i.Q C M Q Q U Q 4.4.4.6.6.<.! U C E E Q M 6.6.6.4.6.7...Q C M E M R <.i.r.O.E U T E f ",
"&Xe Q Q [ 3.3.4.6.i...U U ! ! E ! 6.4.<.4.6.4.! E U E E Q M 6.6.6.4.<.4.Q E E C ! E R <.i.i.O.E U T Q z ",
"oX; ( ' ( m A F.D.C.A C M B M 2 m ( 3 S ' S.Z.6 , 5 N I N , F F m &.>.r.r.t.t.0.L L 3 D D.A.S M B 7 S.( ",
"*Xk 2.&.E i E :.K.F... .Q E M M M M M ! <.6.7.` 2 M C  .C M Q U M <.4.7.6.y.i.:.} } E -.K.,.Q W W Q L.*.",
"=X% k.4.| c X.$.5.L.Q Q E C E Q } W W #.$.u.j.$.v x W +.W W W : : 1.[ 3.[ [ 2.` T T v $.i.4.| v X...*.4.",
">XY I.1...+.$.+.! Q 4 4 4 B T E ! <.<.4.| | #.+.x v | | x W ! : 8 3.3.2.] ) ) q 4 4 v | ....| #.$.<.L.L.",
":X) U.J.7.k.k.@.T 2 ( 4 S ( B 1 B 2.2.2.Q p U E U W o.E f  ...C E 6.-.] T 1 2 3 < 3 | W E Q <.u.7.H.P.H.",
"XXR { [ / +.v j @ * * @ @ * @ . * U U U * . X * X * t O O = = O = f o.} z = i i i j r + X * k v W U ) 2."
};
