/* XPM */
static char *grid1666169709[] = {
/* columns rows colors chars-per-pixel */
"60 60 2 1 ",
"  c black",
". c white",
/* pixels */
"............................................................",
".                                                          .",
".                                                          .",
".                                                          .",
".                                                          .",
".                                                          .",
".                                                          .",
".                                                          .",
".                                                          .",
".                                                          .",
".                                                          .",
".                                                          .",
".                                                          .",
".                                                          .",
".                                                          .",
".                                                          .",
".                                                          .",
".                                                          .",
".                                                          .",
".                                                          .",
".                                                          .",
".                                                          .",
".                                                          .",
".                                                          .",
".                                                          .",
".                                                          .",
".                                                          .",
".                                                          .",
".                                                          .",
".                                                          .",
".                                                          .",
".                                                          .",
".                                                          .",
".                                                          .",
".                                                          .",
".                                                          .",
".                                                          .",
".                                                          .",
".                                                          .",
".                                                          .",
".                                                          .",
".                                                          .",
".                                                          .",
".                                                          .",
".                                                          .",
".                                                          .",
".                                                          .",
".                                                          .",
".                                                          .",
".                                                          .",
".                                                          .",
".                                                          .",
".                                                          .",
".                                                          .",
".                                                          .",
".                                                          .",
".                                                          .",
".                                                          .",
".                                                          .",
"............................................................"
};
