/* XPM */
static char *_c9719de4c644e8487e3b8aff983e3c9[] = {
/* columns rows colors chars-per-pixel */
"52 52 256 2 ",
"   c #020501",
".  c #020C02",
"X  c #090708",
"o  c #160409",
"O  c #031301",
"+  c #0A1404",
"@  c #021C03",
"#  c #0A1C05",
"$  c #09140A",
"%  c #051C0C",
"&  c #0C1C0B",
"*  c #161607",
"=  c #13140C",
"-  c #131C0C",
";  c #1A1C0D",
":  c #0C0E14",
">  c #1B0913",
",  c #0D1413",
"<  c #0D1C13",
"1  c #081C15",
"2  c #141613",
"3  c #1C1313",
"4  c #141C13",
"5  c #1C1C14",
"6  c #16161B",
"7  c #1B151C",
"8  c #151B1A",
"9  c #1C1C1B",
"0  c #201A0F",
"q  c #240616",
"w  c #221613",
"e  c #231B15",
"r  c #24171A",
"t  c #231C1B",
"y  c #291D1B",
"u  c #022303",
"i  c #0A2405",
"p  c #022B02",
"a  c #04220A",
"s  c #0C230B",
"d  c #082C0A",
"f  c #0C2A0C",
"g  c #13230C",
"h  c #1A220D",
"j  c #14280A",
"k  c #063408",
"l  c #153806",
"z  c #042412",
"x  c #0B2312",
"c  c #0D2B13",
"v  c #0D281A",
"b  c #142314",
"n  c #1B2315",
"m  c #132B14",
"M  c #1A2B15",
"N  c #14231B",
"B  c #1B231D",
"V  c #142C1A",
"C  c #1B2C1B",
"Z  c #0A3515",
"A  c #0B3D13",
"S  c #123414",
"D  c #1A331C",
"F  c #16381A",
"G  c #1B3B1B",
"H  c #262810",
"J  c #24231B",
"K  c #26271A",
"L  c #23391B",
"P  c #0E1822",
"I  c #181923",
"U  c #1C1B23",
"Y  c #231C23",
"T  c #271A26",
"R  c #2C1C2A",
"E  c #172621",
"W  c #1C2C21",
"Q  c #1B3424",
"!  c #153A26",
"~  c #1B3B24",
"^  c #173C29",
"/  c #1C3B2A",
"(  c #242222",
")  c #262925",
"_  c #312C29",
"`  c #233424",
"'  c #233C24",
"]  c #2B3927",
"[  c #243B2C",
"{  c #32362C",
"}  c #2B2832",
"|  c #273D33",
" . c #363934",
".. c #452D3B",
"X. c #074306",
"o. c #0C520E",
"O. c #094A15",
"+. c #13441D",
"@. c #1A481A",
"#. c #085717",
"$. c #0C5A14",
"%. c #15591A",
"&. c #27481C",
"*. c #265E1E",
"=. c #0A6D0D",
"-. c #0D6516",
";. c #156319",
":. c #1C631B",
">. c #136B1C",
",. c #1C6B1C",
"<. c #19741B",
"1. c #23651C",
"2. c #23781E",
"3. c #1C4322",
"4. c #1C4C24",
"5. c #1A4929",
"6. c #195727",
"7. c #135729",
"8. c #1D5C2C",
"9. c #224424",
"0. c #234C24",
"q. c #2C4A24",
"w. c #23442C",
"e. c #2A432C",
"r. c #244B2C",
"t. c #2B4B2D",
"y. c #32442C",
"u. c #225224",
"i. c #235E24",
"p. c #2B542C",
"a. c #27582A",
"s. c #33562A",
"d. c #284637",
"f. c #2B4C32",
"g. c #354936",
"h. c #2D5432",
"j. c #255D35",
"k. c #2B5D34",
"l. c #285939",
"z. c #375537",
"x. c #325C35",
"c. c #335C3A",
"v. c #3B5D3C",
"b. c #0A6926",
"n. c #146424",
"m. c #1A6424",
"M. c #176A25",
"N. c #15632A",
"B. c #1C642B",
"V. c #146B2B",
"C. c #1B6C2C",
"Z. c #197329",
"A. c #0E6C31",
"S. c #1B6433",
"D. c #1D6B31",
"F. c #186935",
"G. c #1C7333",
"H. c #187237",
"J. c #226425",
"K. c #246A24",
"L. c #2C6824",
"P. c #24642C",
"I. c #2B652D",
"U. c #236B2C",
"Y. c #2A6D2B",
"T. c #34652C",
"R. c #247422",
"E. c #287729",
"W. c #34792B",
"Q. c #246333",
"!. c #2B6434",
"~. c #246A34",
"^. c #2A6C33",
"/. c #256539",
"(. c #2B643A",
"). c #246C3B",
"_. c #2B6B3B",
"`. c #326333",
"'. c #326C34",
"]. c #3B6933",
"[. c #34633C",
"{. c #3A643D",
"}. c #336C3B",
"|. c #3A6C3C",
" X c #237233",
".X c #2A7231",
"XX c #2B743C",
"oX c #2A7939",
"OX c #357434",
"+X c #35743C",
"@X c #377B39",
"#X c #435A3E",
"$X c #457F2A",
"%X c #43663B",
"&X c #44783D",
"*X c #333A4D",
"=X c #483544",
"-X c #51354C",
";X c #324B49",
":X c #375A46",
">X c #3D5C43",
",X c #2A6943",
"<X c #336441",
"1X c #3D6342",
"2X c #376A46",
"3X c #3A7545",
"4X c #445647",
"5X c #425D44",
"6X c #4C544F",
"7X c #436947",
"8X c #42644A",
"9X c #4C6C4C",
"0X c #477A48",
"qX c #51744D",
"wX c #476954",
"eX c #4A7852",
"rX c #577954",
"tX c #24871D",
"yX c #1C852D",
"uX c #298529",
"iX c #328B2E",
"pX c #2B942B",
"aX c #278536",
"sX c #368837",
"dX c #3C853A",
"fX c #3D8B3C",
"gX c #2A9138",
"hX c #379638",
"jX c #468739",
"kX c #438B3C",
"lX c #47953D",
"zX c #2C8541",
"xX c #3C8342",
"cX c #378947",
"vX c #389343",
"bX c #3B8752",
"nX c #428344",
"mX c #4A8445",
"MX c #438B43",
"NX c #48884A",
"BX c #4B8B4C",
"VX c #53894C",
"CX c #479547",
"ZX c #549B49",
"AX c #4B8654",
"SX c #538B54",
"DX c #598759",
"FX c #4A9357",
"GX c #569659",
"HX c #638E5E",
"JX c #5AA34E",
"KX c #4E9960",
"LX c #5A9666",
"PX c #638861",
"IX c #659363",
"UX c #669B71",
/* pixels */
"IXGXJXZXGXGXIXIXSXmX2XeX7Xy. .=X=X..=X.. .{ g.9XeXeX0XeX9Xg. .=X=X=X-X-X=X4Xg.>XeX|.FXKXGXGXGXGXFXGXGXPX",
"K.2.tXtXuXE.W.W.W.2.n.B.4.@ . > q o q q o . c u.P.7.N.8.a.a   > > q q q X . @ @.~.n.yXaXaXaXaXaXyXaXE.OX",
"1.iXpXpXhXhXfXkXCXiX~.~.4.p O - w o w y 5 & F k.}.B.~.Q.(.S $ 9 3 T q 3 X # S 4.XXU.zXzXsXsXvXhXgXgXvX@X",
"`.dXsXsXfXMX@XOX@XK.@.@.4.x.0.z.t.q.q.t.L G 3.r.f.3.r.w.r.~ G ' e.z.f.t.t.t.z.3.0.+.}.3X|.&XmXkXsXsXsX'.",
"7X0XMXnXnXAX{.k.!.O.O @ F DXVXGXMXZXCXnXI.x.t.b 4 , 8 4 V f.[.^.nXFXFXBXGXAXrXc s O h.x.v.%X&XjXdXsXdX|.",
"7X0XxXxXnXAX[.k.(.O.9 < m DX&XkXuXhXhXE.:.|.z.< 6 T U 6 < f.}.m.E.hXiXuXCXnXDXx 8 8 u.a.s.].&XkXsXsXkX].",
"7XxXCXsXdXNX}.!.3X%.8 < D DXBXkXuXuXtXR.:.|.f.1 U T } U < h.I.K.2.uXuXuXCXSXDXV 1 , C..XY.E.iXiXpXhXiXW.",
"'.sXuX-.-.U.J.J.K.X.x % c eX0XdX2.<.2.R.1.|.t.% E I N < a h.!.J.,.R.R.R.@X0X7Xa x W #.-.>.,.<.=.=.tXiXY.",
"+XMXCX>.,.^.^.+X^.%.s i F DXSXNXU.$.m.m.i.{.r.s C W C m s h.(.J.6.m.%.^.AXLXDXS # O ).XX.X.XE.>.Z.vXvXOX",
"[.xXCX:.J.k.h.c.p.a.* g L rXAXAX3X~.~.~.Q.[.9.u g n j i u p.(.(.Q.).).3XeXeXqXL h h :Xl.f.h.[.j.).FXbXk.",
"w.`.i.p k c V V s c H * * G k A 7.S.S.S.Q.[.9.g h h h j i p.[./.S.S.S.7.Z d V + ; H E E 9 J W z Z l.<X5.",
"[ x.`.A a < 8 E 8 < _ J - g O p a.}.Q.Q.[.1Xt.V 4 4 - g j z.{.[.!.Q.(.6.d u b 4 5 e 9 ( t t 4 % S :X:XQ ",
"' x.@.A @ $ , , 8 , : : , b s S s.T.].T.{.c.w.E 1 1 < x c h.x.x.T.].s.0.i @ < 4 I U O & + + # s S c.c.C ",
"f +.%.x.z.6X6X6X6X4X;X;X;Xg.] L &.l l l G 3.~ | ;X;X;Xd.! r.G l l l l &.L e.g.;X*X*X{.7X#X#X9X{.0.u.9.# ",
"  z k cXCXlXjXZXVXOXn.C.m.I.0Xv.n = r q 7 4 F 2XD.G.P.3Xc.D 4 B 9 8 . ~ [.2X'.!.I.I.$XjXJXCXfXGX+Xp @ . ",
"X z p cXkXlXW.jXBXnXM.U.m.J.}.p.m = 5 3 5 b S !.n.M.%.!.x.m & 5 B N % ~ k.(.P.J.J.J.jXjXlXfXMXGX3X@ a . ",
"X x k SXdXCXE.W.@XU.n.C.m.m.^.j.3.' ] B b b G 3X.XoXY.+X0XS s - ) [ ~ r.Q.P.B.C.C.m.E.W.E.@X@XAXeXf &   ",
"X 4 @ 0X@XBXY.C.G.b.m.U.C.C. X~.Q.<X8X' s i &.GXmXMXkXMXSXl i s e.>Xc.(.~.C.C.G.C.M.>.Z.>.oX3X0X9XO 5 X ",
"o ( s DXDXGX.X;.A.H.J.U.C.C.C.C.S.(.3X3.u @ @.VXjXjXfXkXVXk u s e.9X[.(.D.M.V.Z.V.n.b.b.#.3XLXIXrX+ w o ",
"o ( C 9X0X&XI.B.F.H.P.P.U.C.M.V.S.Q.(.+.u u @.VXjXjXsXdXVXl u i G 1Xk.Q.B.M.C.C.C.n.V.V.n._.3XqX9X5 e o ",
"X 9 $ s i p u.(.).F.k.a.P.~.C.D.~.Q.(.F p p @.VXkXkXfXdXBXX.u f F 1Xk.Q.Q.D.D.~.~.~.~.S.Q.4.a a M * y 3 ",
"X 8 V s f @ t.[.l.l.c.x.k.!.Q.(.(.k.7X9.u u @.SXkXdXdXdXmXA @ F L 9Xc.`.!.(.!.!.(.[.j.j.<Xr.@ % n 5 = X ",
", N V c m i g.5X:XwX5X1X1X{.{.{.1X5X#X] & i 0.SXBXcXnXBXAX&.f s ' 5X5X{.[.[.[.v.>X5X8X9X>Xe.D x & N < . ",
"E d.:Xz m - L K C s m c c f f s g - _ K - @ S 2X~.n.P.}.{.f s g C ] m f f f f m b b M L C n b & W :Xd.E ",
"[ wXwXa b - h + C # x c c f f g g 5 * e 5 4 V <X/.S.k.[.v.m b n 4 & s s f f f b b 4 g - - n b & Q 8XwXd.",
"/ :X:Xz C - h O M s % a a a i i s - ; t 9 B Q 1X<X,X1X1X>XW W B 4 4 % u u u u u & & g # - n b b ` :X:X/ ",
"% / Q V C g y.' r.+.f.t.r.4.4.4.0.e.g.) 2 9 B d.~ 5.w.~ | N B 8 ) g.f.r.4.4.4.r.r.f.9.w.e.` b b ` | [ v ",
". 1 % N O O z.7X3XXX<X[.(.Q.~._._.2XwX[ $ 4 8 B $ x x % B 2 9 4 | wX1X(.^.~./.(.(.<X_.3X7Xe.@ + b b < . ",
"  - - ` + # 3.!.D.A.k.!.Q.D.G.G.G.).2X/ < 8 9 ( = 5 b 4 W 8 B B ] 8Xk.Q.C.D.D.D.)./.N.S.(.3.@ & B 2 2 X ",
"X 5 =  .] g.p.Q.A.b.!.(.~.D.V.b.b.7.8.! x B 9 _ t ) C B ) 8 B b Q r.8.N.M.V.H.H.F.F.A.N.Q.a.' ] { 5 t : ",
". p k mXGX0X'.Y.,.R.1.$.>.V.F.l.Q 2 r r 4 @ +.XXoX XXXXX_.F x 9 r r , v ,XF.V.>.,.:.R.,.<.Z.vXGX%XK y X ",
". p p mXSXVX'.J.$.,.L.K. XD.).<XQ 2 3 r 4 @ A Q.C.C.B.~.Q.Z @ 8 r T 7 [ 2X,XG.C.,.%.:.;.>.uXCXGX%X# e X ",
"  f u VX0X&X'.:.;.<.L.'.^.6.j.c.` t 3 ( ` S +.P.B.J.B.Q.Q.+.c ` ( r 3 ` c./.N.XX.XL.K.,.>.aXcXAX%X+ ; X ",
"  m k HX0X0XNXnXfXiXu.`.u.k Z D - e y  .v.r.8.~.J.I.I.!.Q.8.l.>X{ 3 3 B V Z k i.a.a.nXBXxXvXxXNXrXj ; $ ",
"  g O rXqXqXVXmXkXR.v.7Xh.a @ 4 * y 5 y.8X(.Q.^.J.I.a.i.Q.Q.2XwX{ 3 y e & a d c.v.z.&XVXNXMX@X0X9X. - + ",
"X b m PXPXPXrXAXBXdXz.5Xz.V b J e _ * ' 2X~.D.U.i.T.a.I.^.D.Q.c.' ; y w 5 b D >X8X5XrXPXSXAXSXIXrXj - . ",
"X B O L D L j S X.X.W V Q b 4 J e J - 9._.D.C.U.i.T.T.I. XV.S.j.G - K w y 4 b Q Q V ` F S Z A @.F O b . ",
"X 4 b & $ B b x u u v z v x 4 K y 0 g 4._.V.n.m.*.T.I.8.N.b.H._.3.g K 3 K 5 N x N x 4 $ b f a u @ m & . ",
"  & V & N 8 9 B b s z % v % 4 n * H @ 4.B.V.b.n.K.L.i.P. Xb.b.).+.@ n * 5 4 % z z % 7 9 B B m x % m N . ",
"b [ e.b N Y Y U 9 ) 5.^ 5.~ e.y.n n i k.bXcXaXG.K.1.i.m. XoXcXbXa.f ; n ] e./ w.5.w.T 7 7 8 b b c w.[ < ",
"[ >Xv.c & U T U 7 { 3X<X2X<X8X5XC - @ x.AXcXG.M.m.Y.OXm.n.G.bXAXr.& b ` 5X8X<X<X<X2X} T T 9 b b F 1X:XW ",
"9.|.[.d @ 8 Y U 7 } !.8.Q.8.<X1XC - # v.UXKXzXC.$.%.J.%.C.cXLXLXh.# & D >X<X8.Q.P.!.} 7 t 9 - @ d <X:XQ ",
"+.!.P.O.F ` W 7 9 { OXU.~.8.Q.c.V - - g.9X}.^.oXK.K.Y..X+X_.2X9Xy.- - D c./.N.C..XOX) 2 5 K L S A /.<X~ ",
"+.J.m.6.}.c.W < B g.ZXMXcXC.~.k.V - e ; s @ O.nXMXCXMXFXxXA @ g 5 5 5 ~ (.).G.sXCXZX| 4 - ] %X].8.~./.3.",
"@.U.Z.,.@X{.~ % b g.lXsXsXV.C.(.F J y w h @ u.SXMXfX@XBXAX@.@ 5 y y = F j.C.Z.gXCXZXQ & # L ].'.m.C.D.+.",
"4. XZ.-.J.k.F @ % ' JXCXvXZ.G.(.V 5 w w K s 0.BXMXMXBXSX0X@.g K y r 5 ~ _.G.Z.gXlXlXF f j L s.J.;.G.V.O.",
"I.sXsX,.J.{.F b m M P P I I U ( 9 2 B 4 B < < ( 8 9 h h ] + & b B B 9 = J 9 = n 4 4 y y ; ] %XK.=.pXpX X",
"[.NXMXK.I.{.C < 4 < U U I 7 Y Y t 3 ( 9 9 9 7 Y r Y 3 3 ( 9 9 U 9 U Y 7 ) t 3 9 8 B 3 3 = ` 1XY.<.hXiX@X",
"x.nXdXK.i.c.V x x x 4 4 = = = ; = = = + + 9 J w y R R T 7 Y U 6 6 9 6 7 7 2 2 4 $ b < < 1 / <XB.>.sX@X|.",
"I.CXsXuX@X0Xa.5.5.a.p.p.p.q.q.s.s.s.s.s.q.z.y.- ; e ( ( ,  .g.d.g.z.f.z.f.t.h.h.r.c.j.a.5.(.bXaXuXhXfX].",
"J.iXpXpXhXCX X~.~.oXR.R.R.K.Y.Y.Y.K.:.J.i.`.u.p j j % x a :X2X<X_.~.U.^.J.J.^..XU. XC.C.N.XXbXvXpXhXiX*.",
"'.<.<.<.Z..X7.#.O.#.$.$.$.$.$.$.#.#.n.B.8.6.A @ . . . O @ +.7.O.O.O.#.$.o.#.$.#.#.#.%.%.%.Q.XXoXE.E.W.s."
};
